<?xml version="1.0" standalone="no"?>
<!DOCTYPE svg PUBLIC "-//W3C//DTD SVG 20010904//EN"
 "http://www.w3.org/TR/2001/REC-SVG-20010904/DTD/svg10.dtd">
<svg version="1.0" xmlns="http://www.w3.org/2000/svg"
 width="375.000000pt" height="375.000000pt" viewBox="0 0 375.000000 375.000000"
 preserveAspectRatio="xMidYMid meet">
<metadata>
Created by potrace 1.11, written by Peter Selinger 2001-2013
</metadata>
<g transform="translate(0.000000,375.000000) scale(0.100000,-0.100000)"
fill="#000000" stroke="none">
<path d="M1858 3745 c-2 -2 -38 -5 -81 -6 -43 -1 -99 -5 -125 -9 -26 -5 -69
-11 -97 -14 -81 -11 -278 -64 -350 -95 -11 -5 -49 -21 -85 -36 -459 -194 -848
-613 -1014 -1092 -76 -221 -100 -368 -101 -613 0 -262 30 -441 112 -660 68
-182 208 -425 314 -546 81 -92 200 -207 279 -268 47 -37 90 -71 96 -75 84 -66
331 -188 480 -237 196 -64 347 -87 569 -88 208 -1 284 7 460 49 525 126 984
492 1228 980 40 81 114 266 122 305 2 8 10 43 19 77 41 155 50 244 51 453 0
255 -23 396 -102 625 -226 650 -826 1140 -1508 1231 -11 1 -69 6 -130 9 -60 4
-115 8 -122 10 -6 2 -13 2 -15 0z"/>
</g>
</svg>
